<svg width="43" height="43" viewBox="0 0 43 43" fill="none" xmlns="http://www.w3.org/2000/svg">
<circle cx="21.5" cy="21.5" r="21.5" fill="white"/>
<path d="M33.25 16.9999C33.2496 16.5615 33.1338 16.1309 32.9144 15.7513C32.695 15.3718 32.3797 15.0566 32 14.8374L23.25 9.83738C22.87 9.61796 22.4388 9.50244 22 9.50244C21.5612 9.50244 21.13 9.61796 20.75 9.83738L12 14.8374C11.6203 15.0566 11.305 15.3718 11.0856 15.7513C10.8662 16.1309 10.7504 16.5615 10.75 16.9999V26.9999C10.7504 27.4383 10.8662 27.8689 11.0856 28.2484C11.305 28.628 11.6203 28.9432 12 29.1624L20.75 34.1624C21.13 34.3818 21.5612 34.4973 22 34.4973C22.4388 34.4973 22.87 34.3818 23.25 34.1624L32 29.1624C32.3797 28.9432 32.695 28.628 32.9144 28.2484C33.1338 27.8689 33.2496 27.4383 33.25 26.9999V16.9999Z" stroke="black" stroke-width="2" stroke-linecap="round" stroke-linejoin="round"/>
<path d="M11.125 15.75L22 22L32.875 15.75" stroke="black" stroke-width="2" stroke-linecap="round" stroke-linejoin="round"/>
<path d="M22 34.5V22" stroke="black" stroke-width="2" stroke-linecap="round" stroke-linejoin="round"/>
</svg>
